<?xml version="1.0" encoding="utf-8"?>
<!-- Generator: Adobe Illustrator 26.5.1, SVG Export Plug-In . SVG Version: 6.00 Build 0)  -->
<svg version="1.1" id="Layer_1" xmlns="http://www.w3.org/2000/svg" xmlns:xlink="http://www.w3.org/1999/xlink" x="0px" y="0px"
	 viewBox="0 0 2194 2500" style="enable-background:new 0 0 2194 2500;" xml:space="preserve">
<style type="text/css">
	.st0{fill:#FFFFFF;}
	.st1{fill:#F4F4F4;}
</style>
<g id="Layer_2_00000018232461145098327590000016004129195372615330_">
	<g id="Layer_1-2">
		<path class="st0" d="M2014.9,529.1L1245.5,72.3c-91.4-54.5-205.4-54.5-296.9,0L179.1,529.1C86.5,584.9,30.2,685.4,30.7,793.5
			v913.4c-0.5,108,55.8,208.4,148.4,264.2l769.4,456.6c91.5,54.5,205.4,54.5,296.9,0l769.4-456.6c92.6-55.8,149-156.2,148.5-264.4
			V793.5C2163.8,685.4,2107.5,584.9,2014.9,529.1z"/>
		<path d="M2014.9,529.1L1245.5,72.3c-91.4-54.5-205.4-54.5-296.9,0L179.1,529.1C86.5,584.9,30.2,685.4,30.7,793.5v913.4
			c-0.5,108,55.8,208.4,148.4,264.2l769.4,456.6c91.5,54.5,205.4,54.5,296.9,0l769.4-456.6c92.6-55.8,149-156.2,148.5-264.4V793.5
			C2163.8,685.4,2107.5,584.9,2014.9,529.1z M975.4,2381L206,1924.4c-76-46.1-122.3-128.6-122-217.5V793.5
			C83.6,704.6,130,622,206,576l769.4-456.8c74.9-44.7,168.2-44.7,243.1,0L1987.3,576c63.4,38.4,106.6,102.8,118.2,175.9
			c-25.6-54.4-83-69.3-150.1-30.8l-727.3,450.5c-90.7,52.8-157.6,112.5-157.8,221.8v896.9c0,65.5,26.3,107.8,67,120.3
			c-13.3,2.4-26.8,3.7-40.4,3.9C1054.2,2414.4,1012.2,2402.9,975.4,2381z"/>
		<path class="st1" d="M1813.2,1795.2l-191.7,114.6c-5.1,2.1-8.6,7-8.8,12.5v50.4c0,6.2,4.2,8.6,9.2,5.7l194.6-118.3
			c4.8-3.6,7-9.6,5.9-15.4v-44.2C1822.3,1794.7,1817.8,1792.2,1813.2,1795.2L1813.2,1795.2z"/>
		<path class="st0" d="M1405.3,1373.2c6.2-3.1,11.2,0,11.4,8.8l0.6,66.9c23-10.5,48.8-13.6,73.6-8.9c4.8,1.2,6.8,7.7,4.9,15.4
			l-14.6,58.7c-1.1,4.4-3.4,8.5-6.6,11.7c-1.1,1.1-2.4,2.1-3.9,2.8c-1.7,0.9-3.8,1.3-5.7,0.9c-24.3-5.4-49.7-1.3-71,11.4
			c-31.2,14.1-51.7,44.8-52.5,79c0,30.8,15.4,39.3,69.2,40.2c71,1.2,101.8,32.2,102.6,103.8c-1.7,74.8-36.2,145-94.3,192.1l1.2,65.6
			c-0.1,8.2-4.3,15.7-11.2,20l-38.8,22.3c-6.2,3.1-11.2,0-11.4-8.6v-64.6c-33.3,13.9-67,17.1-88.6,8.5c-4-1.5-5.9-7.5-4.2-14.5
			l14-59.3c1.1-4.7,3.5-9,6.9-12.3c1.1-1.1,2.3-1.9,3.7-2.6c2-0.9,4.3-0.9,6.3,0c27.5,7.4,56.8,3.7,81.5-10.3
			c35.7-17.2,58.9-52.8,60.2-92.4c0-33.3-18.3-47.1-61.6-47.5c-55.9,0-107.8-10.8-108.9-92.4c1.3-71.3,34.4-138.4,90.3-182.7
			l-2.8-67.2c0-8.3,4.2-16,11.2-20.3L1405.3,1373.2z"/>
	</g>
</g>
</svg>
