<?xml version="1.0" encoding="UTF-8" standalone="no"?>
<!-- Generator: Adobe Illustrator 26.5.1, SVG Export Plug-In . SVG Version: 6.00 Build 0)  -->

<svg
   version="1.1"
   id="Layer_1"
   x="0px"
   y="0px"
   viewBox="0 0 2194 2500"
   style="enable-background:new 0 0 2194 2500;"
   xml:space="preserve"
   sodipodi:docname="chai-icon.svg"
   inkscape:version="1.3.2 (091e20e, 2023-11-25, custom)"
   xmlns:inkscape="http://www.inkscape.org/namespaces/inkscape"
   xmlns:sodipodi="http://sodipodi.sourceforge.net/DTD/sodipodi-0.dtd"
   xmlns="http://www.w3.org/2000/svg"
   xmlns:svg="http://www.w3.org/2000/svg"><defs
   id="defs4"><linearGradient
     x1="137.5448"
     y1="125.77162"
     x2="137.5448"
     y2="265.17056"
     id="a"
     gradientTransform="scale(0.93060585,1.0745688)"
     gradientUnits="userSpaceOnUse"><stop
       stop-color="#F7F6F3"
       offset="0"
       id="stop1"
       style="stop-color:#f5f5f5;stop-opacity:1;" /><stop
       stop-color="#FEF6D5"
       offset="1"
       id="stop2"
       style="stop-color:#e9e9e9;stop-opacity:1;" /></linearGradient></defs><sodipodi:namedview
   id="namedview4"
   pagecolor="#ffffff"
   bordercolor="#000000"
   borderopacity="0.25"
   inkscape:showpageshadow="2"
   inkscape:pageopacity="0.0"
   inkscape:pagecheckerboard="0"
   inkscape:deskcolor="#d1d1d1"
   inkscape:zoom="0.1554"
   inkscape:cx="859.07335"
   inkscape:cy="1425.3539"
   inkscape:window-width="1920"
   inkscape:window-height="991"
   inkscape:window-x="-9"
   inkscape:window-y="-9"
   inkscape:window-maximized="1"
   inkscape:current-layer="g1" />
<style
   type="text/css"
   id="style1">
	.st0{fill:#FFFFFF;}
	.st1{fill:#BFC8D0;}
	.st2{fill:#F4F4F4;}
</style>

<g
   id="g1"
   transform="matrix(8.7357637,0,0,8.7357637,-20.929329,170.4033)"><path
     d="m 91.505,27.803 c 60.964,-24.41 135.74,20.658 142.05,86.028 9.824,58.82 -38.995,118.593 -98.59,120.32 C 78.288,239.807 23.516,191.761 21.909,134.847 17.682,88.767 48.045,43.044 91.505,27.803 Z"
     fill="#ffffff"
     id="path2" /><g
     id="g2"
     transform="matrix(0.96461002,0,0,0.96461002,4.9362121,-19.074877)"><path
       d="M 11.071,215.711 127.997,283.22 244.929,215.711 V 80.696 L 127.997,13.189 11.071,80.696 Z M 127.997,296 0,222.1 V 74.306 L 127.997,0.404 256,74.306 V 222.1 Z"
       fill="#a1070c"
       id="path2-2"
       style="fill:#bfc8d0;fill-opacity:1" /><path
       d="M 9.579,79.833 128,11.463 246.421,79.833 V 216.574 L 128,284.944 9.579,216.574 V 79.833"
       fill="url(#a)"
       id="path3-0"
       style="fill:#ffffff;fill-opacity:1" /><path
       d="m 182.332,98.173 c 0,5.372 -1.06,10.708 -3.18,16.008 a 59.125,59.125 0 0 1 -8.534,14.736 62.439,62.439 0 0 1 -12.35,11.874 c -4.666,3.393 -9.507,5.83 -14.525,7.315 l -2.226,-3.71 a 34.048,34.048 0 0 0 8.163,-5.725 37.143,37.143 0 0 0 6.36,-7.898 39.166,39.166 0 0 0 4.082,-9.33 35.758,35.758 0 0 0 1.431,-10.018 c 0,-3.887 -0.565,-7.562 -1.696,-11.025 -1.13,-3.464 -2.791,-6.485 -4.982,-9.065 -2.191,-2.58 -4.895,-4.611 -8.11,-6.095 -3.216,-1.485 -6.91,-2.227 -11.079,-2.227 -5.089,0 -9.753,0.99 -13.994,2.969 -4.24,1.979 -8.057,4.647 -11.45,8.004 -3.392,3.357 -6.343,7.209 -8.852,11.555 a 79.725,79.725 0 0 0 -6.254,13.676 91.782,91.782 0 0 0 -3.764,14.471 c -0.848,4.877 -1.272,9.47 -1.272,13.782 0,4.382 0.46,8.905 1.378,13.57 a 80.657,80.657 0 0 0 4.029,13.782 70.818,70.818 0 0 0 6.573,12.827 c 2.615,4.029 5.636,7.563 9.064,10.602 a 42.219,42.219 0 0 0 11.45,7.262 c 4.205,1.802 8.78,2.703 13.728,2.703 3.393,0 6.697,-0.46 9.912,-1.378 a 48.88,48.88 0 0 0 9.277,-3.71 52.352,52.352 0 0 0 8.428,-5.513 64.885,64.885 0 0 0 7.368,-6.891 l 3.498,3.392 c -3.11,4.1 -6.802,8.04 -11.078,11.82 a 90.514,90.514 0 0 1 -13.835,10.072 75.56,75.56 0 0 1 -15.531,6.997 c -5.407,1.732 -10.76,2.597 -16.061,2.597 -5.16,0 -10.019,-0.9 -14.577,-2.703 A 48.106,48.106 0 0 1 91.16,215.584 c -3.816,-3.074 -7.227,-6.679 -10.23,-10.813 a 73.252,73.252 0 0 1 -7.633,-13.2 74.963,74.963 0 0 1 -4.771,-14.417 c -1.095,-4.947 -1.643,-9.789 -1.643,-14.524 0,-6.856 1.148,-13.906 3.445,-21.15 2.297,-7.244 5.46,-14.276 9.489,-21.097 4.028,-6.82 8.781,-13.27 14.258,-19.347 5.478,-6.078 11.38,-11.38 17.705,-15.902 6.325,-4.524 12.934,-8.11 19.824,-10.76 6.891,-2.651 13.765,-3.976 20.62,-3.976 4.24,0 8.199,0.618 11.874,1.855 3.675,1.237 6.855,3.021 9.541,5.354 2.686,2.332 4.806,5.23 6.361,8.693 1.555,3.463 2.332,7.42 2.332,11.873 z"
       fill="#a1070c"
       id="path4"
       style="fill:#bfc8d0;fill-opacity:1" /></g></g></svg>
