<?xml version="1.0" encoding="utf-8"?>
<!-- Generator: Adobe Illustrator 26.5.1, SVG Export Plug-In . SVG Version: 6.00 Build 0)  -->
<svg version="1.1" id="Layer_1" xmlns="http://www.w3.org/2000/svg" xmlns:xlink="http://www.w3.org/1999/xlink" x="0px" y="0px"
	 viewBox="0 0 2500 1992" style="enable-background:new 0 0 2500 1992;" xml:space="preserve">
<style type="text/css">
	.st0{fill:#BFC8D0;}
</style>
<path class="st0" d="M165.4,1262.4v-248.1h309.8v-14.5H165.4V773.4h329.4v-14.5H150.9v518h346.8v-14.5H165.4L165.4,1262.4z
	 M777.1,904l-128.4,169.1L523.1,904h-18.9l135.7,179.9l-148.7,193h17.4l140-182.1l140.8,182.1h18.1l-149.5-193L794.5,904L777.1,904
	L777.1,904z M851.1,1404.6v-232.2h1.5c8.7,33.9,25.9,61.1,51.5,81.6c25.6,20.6,58.3,30.8,97.9,30.8c25.6,0,48.4-5.2,68.2-15.6
	s36.4-24.5,49.7-42.4c13.3-17.9,23.5-38.7,30.5-62.4c7-23.7,10.5-48.6,10.5-74.7c0-28.1-3.6-53.9-10.9-77.6
	c-7.3-23.7-17.8-44.3-31.6-61.7c-13.8-17.4-30.5-31-50.1-40.6c-19.6-9.7-41.7-14.5-66.4-14.5c-18.9,0-36.4,2.8-52.6,8.3
	c-16.2,5.6-30.6,13.4-43.2,23.6c-12.6,10.2-23.7,22.3-32.7,35.9c-9.2,13.8-16.2,28.9-21,45.3h-1.5V904h-14.5v500.6H851.1
	L851.1,1404.6z M1002,1271.1c-45.5,0-82-15.6-109.6-46.8c-27.6-31.2-41.4-76.1-41.4-134.6c0-24.2,3.4-47.2,10.2-68.9
	c6.8-21.8,16.6-40.9,29.4-57.3c12.8-16.4,28.7-29.5,47.5-39.2c18.9-9.7,40.1-14.5,63.8-14.5c24.2,0,45.3,4.8,63.5,14.5
	c18.1,9.7,33.1,22.9,45,39.5c11.8,16.7,20.8,35.8,26.8,57.3c6,21.5,9.1,44.4,9.1,68.6c0,21.8-2.8,43.4-8.3,64.9
	c-5.6,21.5-14.1,40.9-25.8,58c-11.6,17.2-26.5,31.2-44.6,42.1C1049.5,1265.7,1027.6,1271.1,1002,1271.1L1002,1271.1z M1240.7,1276.9
	v-211.1c0-20.3,2.9-40.1,8.7-59.5c5.8-19.3,14.7-36.4,26.8-51.1c12.1-14.8,27.4-26.4,46.1-34.8c18.6-8.5,40.8-12,66.4-10.5v-14.5
	c-22.3-0.5-41.7,1.9-58.4,7.3c-16.7,5.3-31.1,12.6-43.2,21.8c-12.1,9.2-21.8,19.9-29,32.3c-7.2,12.3-12.6,25.6-16,39.5h-1.5V904
	h-14.5v372.9L1240.7,1276.9L1240.7,1276.9z M1406.8,1093.4h312c1-25.6-1.6-50.3-7.6-74c-6-23.7-15.7-44.7-29-63.1
	c-13.3-18.4-30.5-33.1-51.5-44.3s-46.1-16.7-75.1-16.7c-20.8,0-41.1,4.4-60.9,13.1c-19.8,8.7-37.2,21.4-52.2,38.1
	c-15,16.7-27.1,37.1-36.3,61.3c-9.2,24.2-13.8,51.8-13.8,82.7c0,27.6,3.1,53.3,9.4,77.3s16,44.7,29,62.4
	c13.1,17.7,29.9,31.3,50.4,41c20.6,9.7,45.3,14.3,74.4,13.8c42.6,0,78.4-12,107.4-35.9c29-23.9,46.2-57.7,51.5-101.2h-14.5
	c-6.3,41.1-22.4,72-48.2,92.5c-25.9,20.6-58.4,30.8-97.6,30.8c-26.6,0-49.1-4.6-67.5-13.8c-18.4-9.2-33.4-21.8-45-37.7
	c-11.6-16-20.2-34.7-25.8-56.2C1410.3,1141.9,1407.3,1118.5,1406.8,1093.4L1406.8,1093.4z M1704.3,1078.9h-297.5
	c1.4-26.1,6.3-49.6,14.5-70.4c8.2-20.8,19-38.6,32.3-53.3c13.3-14.8,28.8-26,46.4-33.7c17.7-7.7,36.6-11.6,57-11.6
	c24.2,0,45.5,4.5,63.8,13.4c18.4,8.9,33.7,21.2,46.1,36.6c12.3,15.5,21.6,33.5,27.9,54C1701.1,1034.5,1704.3,1056.1,1704.3,1078.9
	L1704.3,1078.9z M2019.9,1014.3h14.5c0-41.6-12.1-71.8-36.3-90.7c-24.2-18.9-57.1-28.3-98.7-28.3c-23.2,0-42.8,2.9-58.8,8.7
	c-16,5.8-29,13.3-39.2,22.5c-10.2,9.2-17.4,19.3-21.8,30.5c-4.4,11.1-6.5,21.8-6.5,31.9c0,20.3,3.6,36.5,10.9,48.6
	c7.3,12.1,18.6,21.5,34.1,28.3c10.6,4.8,22.7,9.2,36.3,13.1c13.5,3.9,29.3,8,47.2,12.3c16,3.9,31.7,7.7,47.2,11.6
	c15.5,3.9,29.1,9.1,41,15.6c11.9,6.5,21.5,14.9,29,25c7.5,10.2,11.2,23.5,11.2,39.9c0,16-3.7,29.5-11.2,40.6
	c-7.4,11.1-17.2,20.4-28.7,27.2c-11.6,7-24.6,12.1-38.8,15.2c-14.3,3.1-28.2,4.7-41.7,4.7c-44,0-77.8-9.8-101.2-29.4
	c-23.5-19.6-35.2-50.4-35.2-92.5h-14.5c0,46.9,12.7,81.3,38.1,103c25.4,21.8,63,32.6,112.8,32.6c16,0,32-1.8,48.2-5.4
	c16.2-3.6,30.7-9.5,43.5-17.8c12.7-8.1,23.4-19,31.2-31.9c8-13.1,12-29,12-47.9c0-17.9-3.5-32.4-10.5-43.5
	c-7-11.1-16.2-20.3-27.6-27.6c-11.4-7.3-24.2-12.9-38.5-17c-14.4-4.1-28.7-8.1-43.2-12c-17.8-4.7-35.5-9.3-53.3-13.8
	c-15.2-3.9-29.4-8.5-42.4-13.8c-12.6-5.3-22.6-12.9-30.1-22.9c-7.5-9.9-11.2-24.1-11.2-42.4c0-3.4,1-9.4,2.9-18.1
	c1.9-8.7,6.5-17.5,13.8-26.5c7.3-8.9,18.4-16.9,33.4-23.9c15-7,35.6-10.5,61.7-10.5c17.9,0,34.2,1.9,49,5.8
	c14.8,3.9,27.5,10,38.1,18.5c10.6,8.5,18.9,19.2,24.7,32.3C2017,979.5,2019.9,995.4,2019.9,1014.3L2019.9,1014.3z M2355.8,1014.3
	h14.5c0-41.6-12.1-71.8-36.3-90.7c-24.2-18.9-57.1-28.3-98.7-28.3c-23.2,0-42.8,2.9-58.8,8.7c-16,5.8-29,13.3-39.2,22.5
	c-10.2,9.2-17.4,19.3-21.8,30.5c-4.4,11.1-6.5,21.8-6.5,31.9c0,20.3,3.6,36.5,10.9,48.6c7.3,12.1,18.6,21.5,34.1,28.3
	c10.6,4.8,22.7,9.2,36.3,13.1c13.5,3.9,29.3,8,47.2,12.3c16,3.9,31.7,7.7,47.2,11.6c15.5,3.9,29.1,9.1,41,15.6
	c11.8,6.5,21.5,14.9,29,25c7.5,10.2,11.2,23.5,11.2,39.9c0,16-3.7,29.5-11.2,40.6c-7.4,11.1-17.2,20.4-28.7,27.2
	c-11.6,7-24.6,12.1-38.8,15.2c-14.3,3.1-28.2,4.7-41.7,4.7c-44,0-77.8-9.8-101.2-29.4c-23.5-19.6-35.2-50.4-35.2-92.5h-14.5
	c0,46.9,12.7,81.3,38.1,103c25.4,21.8,63,32.6,112.8,32.6c16,0,32-1.8,48.2-5.4c16.2-3.6,30.7-9.5,43.5-17.8
	c12.7-8.1,23.4-19,31.2-31.9c8-13.1,12-29,12-47.9c0-17.9-3.5-32.4-10.5-43.5c-7-11.1-16.2-20.3-27.6-27.6
	c-11.4-7.3-24.2-12.9-38.5-17c-14.4-4.1-28.7-8.1-43.2-12c-17.8-4.7-35.5-9.3-53.3-13.8c-15.2-3.9-29.4-8.5-42.4-13.8
	c-12.6-5.3-22.6-12.9-30.1-22.9c-7.5-9.9-11.2-24.1-11.2-42.4c0-3.4,1-9.4,2.9-18.1c1.9-8.7,6.5-17.5,13.8-26.5
	c7.3-8.9,18.4-16.9,33.4-23.9c15-7,35.6-10.5,61.7-10.5c17.9,0,34.2,1.9,49,5.8c14.8,3.9,27.4,10,38.1,18.5
	c10.6,8.5,18.9,19.2,24.7,32.3C2352.9,979.5,2355.8,995.4,2355.8,1014.3L2355.8,1014.3z"/>
</svg>
