<?xml version="1.0" encoding="utf-8"?>
<!-- Generator: Adobe Illustrator 26.5.1, SVG Export Plug-In . SVG Version: 6.00 Build 0)  -->
<svg version="1.1" id="Layer_1" xmlns="http://www.w3.org/2000/svg" xmlns:xlink="http://www.w3.org/1999/xlink" x="0px" y="0px"
	 viewBox="0 0 2261 2500" style="enable-background:new 0 0 2261 2500;" xml:space="preserve">
<style type="text/css">
	.st0{fill:#BFC8D0;}
	.st1{fill:#FFFFFF;}
</style>
<g>
	<path class="st0" d="M2119,1229.2c0-128.3-104-232.4-232.4-232.4c-8.3,0-16.4,0.4-24.4,1.3l319.2-941.3H825l318.7,940.5
		c-4.7-0.3-9.4-0.4-14.1-0.5c-128.3,0-232.4,104-232.4,232.4c0,103.7,68,191.6,161.8,221.4c-49.6,85.8-111.9,163.2-182.7,230
		c-96.3,90.8-206.5,159.7-325.6,202.1c-141.9-72.9-208.9-235-148.4-377.1c6.8-16.1,13.8-32.3,20.5-48.5
		c102.8-24,179.4-116.1,179.4-226.2c0-128.3-104-232.4-232.4-232.4s-232.4,104-232.4,232.4c0,78.7,39.1,148.2,99,190.2
		C178.9,1552,94.3,1689.1,68,1847.9c-31.6,190.4-0.1,392.4,164.5,506.5c383.4,265.8,799.6-164.7,1238.5-273
		c159-39.2,333.6-32.9,473.7-114c105.2-60.9,174.6-162,194.3-275.3c19.5-112-8.9-223.6-74.1-314
		C2099.9,1336.4,2119,1283.6,2119,1229.2"/>
	<path class="st1" d="M2083.1,1682.4c-17.1,98.4-77.9,184.4-166.8,235.9c-82.9,48-182.2,62.3-287.4,77.5
		c-56.3,8.1-114.6,16.5-171.5,30.6c-150.5,37.1-296.2,109.5-437.2,179.5C738.1,2346,494.5,2467,264.8,2307.8
		C96.6,2191.2,104.4,1975.4,124,1857.2c18.2-109.5,67.3-210.4,114.8-308c8.1-16.6,16.1-33.2,24.1-49.8c23.9,9.6,49.1,15.9,74.7,18.7
		c-48.3,159.6,27.7,333.1,187.3,415l21.8,11.2l23.1-8.2c126.2-44.9,242.4-117,345.5-214.3c66.7-62.9,124-132.5,171.1-206.8
		c14.3,2.2,28.8,3.2,43.3,3.2c146.5,0,267.8-109.5,286.5-250.9c60-2.2,123.6-2.2,183.9,0c18.8,141.4,140.1,250.9,286.5,250.9
		c61.2,0,118.1-19.2,164.9-51.8C2083.9,1533,2096,1607.8,2083.1,1682.4L2083.1,1682.4z M369.7,1055.2c96.8,0,175.6,78.8,175.6,175.6
		c0,34.8-10.2,67.2-27.7,94.5c-29.2,45.5-78.8,76.7-135.8,80.6c-4,0.3-8,0.5-12.1,0.5c-21.6,0-42.3-3.9-61.4-11.1
		c-38.5-14.5-70.7-41.9-91.2-77.6c-15.2-26.4-23.1-56.4-23.1-86.9C194.1,1134,272.9,1055.2,369.7,1055.2L369.7,1055.2z M954,1229.2
		c0-88,65-161,149.6-173.7c8.5-1.3,17.2-1.9,26.1-1.9c56.3,0,106.4,26.7,138.6,68c8.1,10.3,14.9,21.5,20.5,33.3
		c10.9,23.3,16.6,48.6,16.5,74.3c0,14-1.7,27.7-4.8,40.8c-17.1,71.6-78.2,126.4-153.1,134c-5.8,0.6-11.7,0.9-17.7,0.9
		c-33.8,0-66.8-9.7-95.2-28.1C986.1,1345.3,954,1290.9,954,1229.2L954,1229.2z M1687,1020.3c-38.2,36.5-65.7,82.7-79.5,133.7
		c-66.2-2.4-132.5-2.4-198.7,0c-14.9-55.1-45.7-103.8-87.1-140.7l181.7-367.5L1687,1020.3z M904.1,113.5h1198l-283,834.5
		c-12.2,2.9-24.1,6.6-35.8,11.1l-279.5-570.2l-280.3,566.8c-12.2-4.2-24.7-7.6-37.4-10.1L904.1,113.5z M2062.2,1229.2
		c0,17.6-2.6,34.6-7.5,50.7c-11.5,37.8-35.3,70.6-67.7,93.3c-29.4,20.7-64.5,31.7-100.5,31.7c-81.1,0-149.5-55.3-169.6-130.1
		c-4-14.8-6-30.2-6-45.5c0-24,4.8-46.9,13.6-67.8c4.5-10.7,10.1-20.9,16.6-30.4c31.6-46.7,84.9-77.4,145.4-77.4
		c5.5,0,11,0.3,16.4,0.8C1992.2,1062.7,2062.2,1137.9,2062.2,1229.2L2062.2,1229.2z M2175.7,1229.2c0-141.2-101.7-258.9-235.7-284.1
		L2260.5,0H745.8l320.9,947c-129.3,28.8-226.3,144.3-226.3,282.2c0,103.5,54.7,194.4,136.7,245.5c-39.4,58.8-86.2,114-139.8,164.6
		c-85,80.2-179.7,141-281.7,181c-102.8-64.6-146.3-186.4-101.1-292.5l3.5-8.3l6.6-15.6c112.9-39.4,194.2-146.9,194.2-273
		c0-159.4-129.7-289.1-289.1-289.1S80.6,1071.4,80.6,1230.8c0,80.5,33.1,153.3,86.3,205.8c-9.9,21-20,42-30.2,62.9
		C88,1599.5,32.8,1712.8,12,1838.6c-41.4,249.9,25.4,449.6,188.2,562.5c98.8,68.5,199.1,95.4,300.1,95.4
		c190.1,0,382.4-95.5,570.5-188.9c135.5-67.3,275.5-136.8,413.9-171c51.5-12.7,104.4-20.3,160.5-28.4
		c111.2-16,226.2-32.6,328.1-91.6c118.1-68.4,198.9-183.1,221.8-314.7c19.6-113-4-226.2-61.6-322.2
		C2161.1,1334.4,2175.8,1282.3,2175.7,1229.2L2175.7,1229.2z"/>
</g>
</svg>
