<?xml version="1.0" encoding="utf-8"?>
<!-- Generator: Adobe Illustrator 27.9.1, SVG Export Plug-In . SVG Version: 6.00 Build 0)  -->
<svg version="1.1" id="Layer_1" xmlns="http://www.w3.org/2000/svg" xmlns:xlink="http://www.w3.org/1999/xlink" x="0px" y="0px"
	 viewBox="0 0 2500 1875" style="enable-background:new 0 0 2500 1875;" xml:space="preserve">
<style type="text/css">
	.st0{fill-rule:evenodd;clip-rule:evenodd;fill:#BFC8D0;}
</style>
<g>
	<g>
		<path class="st0" d="M2102.3,1378.5l-8.2,21.3c-140.1,272.9-388.5,440.3-742.7,447.7c-165.6,3.4-323.3-39.1-426.4-85.3
			C702.6,1662.3,515.6,1477,413.4,1279c-146.6-283.8-173-678.7,131.7-973.6c4.7,0-37,63.9-32.3,63.9l-8.4,27.3
			c-219.6,687.5,457,1276.6,1114.6,1209.3C1777.1,1589.7,1978.7,1503.1,2102.3,1378.5"/>
		<path class="st0" d="M1704.4,1094.2c165.5,1.1,338.3-76.2,440.6-184.8c-89.5,227.3-348.8,373.4-696.4,326.9
			c-291.1-39-568.4-331.9-597-625.4c-20.9-213.6,53.6-341.1,176.2-495.8c-42.6,80.9-58.6,143.3-62.5,183.1
			C918.7,760.3,1334.4,1091.8,1704.4,1094.2"/>
		<path class="st0" d="M2128.4,520.2c-25.7,59-173.8,170.4-239.2,184.3c-259,55.2-424.8-67.6-511.7-207.4
			c-12.9-20.9-36.8-77.9-41.1-92.4c-33.7-114.6-18.2-287.8,82.3-377.5c-30.3,85.3-34.7,184.3-18.8,248.7
			c9.7,38.9,39.1,106.9,68.5,149.7c53.6,77.9,87.5,96.8,156.3,138.2c31,18.6,64.2,33.5,78.6,37.6
			C1768.6,620.7,1906.3,671.3,2128.4,520.2"/>
	</g>
</g>
</svg>
