<?xml version="1.0" encoding="utf-8"?>
<!-- Generator: Adobe Illustrator 27.9.1, SVG Export Plug-In . SVG Version: 6.00 Build 0)  -->
<svg version="1.1" id="Layer_1" xmlns="http://www.w3.org/2000/svg" xmlns:xlink="http://www.w3.org/1999/xlink" x="0px" y="0px"
	 viewBox="0 0 2183 2500" style="enable-background:new 0 0 2183 2500;" xml:space="preserve">
<path d="M1259.7,1561.8c3.5,17.6,5.3,48.3,5.3,92.3v344.4H1170v-340.7c0-38.7-3.7-67.6-11.1-86.8c-7.4-19.2-20.5-34.5-39.3-45.9
	c-18.8-11.4-40.9-17.1-66.2-17.1c-40.4,0-75.3,12.8-104.7,38.5c-29.4,25.7-44,74.4-44,146.1v305.9h-94.9v-560.1h85.4v79.6
	c41.1-61.5,100.6-92.3,178.3-92.3c33.8,0,64.8,6.1,93.1,18.2c28.3,12.1,49.5,28,63.6,47.7C1244.2,1511.3,1254,1534.7,1259.7,1561.8
	L1259.7,1561.8z M2178.3,2001.9c-26.7,5.6-50.6,8.4-71.7,8.4c-34.5,0-61.2-5.4-80.2-16.3c-19-10.9-32.3-25.2-40.1-43
	c-7.7-17.7-11.6-55.1-11.6-112.1v-338.2h-206.1c0.5,0.5,1,0.9,1.5,1.4c47.5,51,71.2,122.7,71.2,215.2c0,5.6-0.2,14.1-0.5,25.3H1423
	c3.5,61.5,20.9,108.7,52.2,141.4c31.3,32.7,70.3,49,117.1,49c34.8,0,64.5-9.1,89.1-27.4c24.6-18.3,44.1-47.5,58.5-87.6l98.1,12.1
	c-15.5,57.3-44.1,101.8-86,133.4c-41.8,31.6-95.3,47.5-160.3,47.5c-81.9,0-146.9-25.2-194.9-75.7c-48-50.4-72-121.2-72-212.3
	c0-94.2,24.3-167.4,72.8-219.4c48.5-52,111.5-78.1,188.8-78.1c9.4,0,18.5,0.4,27.4,1.2h360.8v-121.5h94.4v121.5h95.5v73.8h-95.5
	v343.5c0,27.1,1.7,44.5,5,52.2c3.3,7.7,8.8,13.9,16.4,18.5c7.6,4.6,18.4,6.9,32.4,6.9c10.5,0,24.4-1.2,41.7-3.7L2178.3,2001.9z
	 M1741,1664.6c-4.2-47.1-16.2-82.5-35.9-106c-30.2-36.6-69.4-54.9-117.6-54.9c-43.6,0-80.3,14.6-110,43.8
	c-29.7,29.2-46.2,68.2-49.3,117.1H1741z M674.6,1884.4c-17.2,0-31.7,6.1-43.7,18.5c-12,12.3-17.9,27.2-17.9,44.9
	c0,17.2,5.9,32,17.9,44.5c12,12.5,26.6,18.8,43.7,18.8c17.6,0,32.6-6.3,44.9-18.8c12.4-12.5,18.5-27.4,18.5-44.5
	c0-17.2-6.1-32.1-18.5-44.6C707.2,1890.6,692.2,1884.4,674.6,1884.4z M1283.4,1339.2c-49.2,21.6-111.3,32.4-186.2,32.4
	c-131.5,0-222.6-25.3-273.2-76c-0.2-0.2-0.4-0.4-0.6-0.6l23.8,63.4H597l-38.7-127.6H287l-37.7,127.6H5.4L296,585.2h260.6
	l194.1,516.6l214.6-13.4c4.9,36.9,14.9,65.1,30.1,84.4c24.6,31.3,59.8,46.9,105.5,46.9c34.1,0,60.4-8,78.9-24
	c18.5-16,27.7-34.5,27.7-55.6c0-20-8.8-38-26.4-53.8c-17.6-15.8-58.4-30.8-122.4-44.8c-104.8-23.5-179.5-54.8-224.2-93.9
	c-45-39-67.5-88.8-67.5-149.3c0-39.7,11.5-77.3,34.5-112.6c23-35.3,57.7-63.1,103.9-83.3c46.2-20.2,109.6-30.3,190.1-30.3
	c98.8,0,174.1,18.4,226,55.1c51.9,36.7,82.7,95.2,92.6,175.4L1189,815.7c-6-34.8-18.5-60.1-37.7-76c-19.2-15.8-45.6-23.7-79.4-23.7
	c-27.8,0-48.7,5.9-62.8,17.7c-14.1,11.8-21.1,26.1-21.1,43c0,12.3,5.8,23.4,17.4,33.2c11.3,10.2,38,19.7,80.2,28.5
	c104.4,22.5,179.2,45.3,224.4,68.3c45.2,23,78.1,51.6,98.6,85.7c10.5,17.5,18.3,36,23.5,55.6V585.2h397.2
	c86.5,0,151.3,20.6,194.4,61.7c43.1,41.1,64.6,99.7,64.6,175.6c0,78.1-23.5,139.1-70.4,183c-46.9,44-118.6,65.9-214.9,65.9h-130.8
	v286.9h-240v-190.8c-6.7,26.7-17.9,52.2-33.8,76.3C1370.9,1285.9,1332.6,1317.6,1283.4,1339.2L1283.4,1339.2z M1672.1,914.9h58.5
	c46.1,0,78.4-8,97-24c18.6-16,28-36.5,28-61.4c0-24.3-8.1-44.8-24.3-61.7c-16.2-16.9-46.6-25.3-91.2-25.3h-68L1672.1,914.9z
	 M508.7,1063.6l-85.3-278l-84.5,278H508.7z"/>
</svg>
