<?xml version="1.0" encoding="utf-8"?>
<!-- Generator: Adobe Illustrator 27.9.1, SVG Export Plug-In . SVG Version: 6.00 Build 0)  -->
<svg version="1.1" id="Layer_1" xmlns="http://www.w3.org/2000/svg" xmlns:xlink="http://www.w3.org/1999/xlink" x="0px" y="0px"
	 viewBox="0 0 2183 2500" style="enable-background:new 0 0 2183 2500;" xml:space="preserve">
<style type="text/css">
	.st0{fill:#FFFFFF;}
</style>
<path class="st0" d="M1751.5,732.3l25.5-272.7H394l76.4,836.1h954.4l-37.4,356.6l-305.7,82.4l-310.1-89.9L755.2,1432H480.9
	l37.5,434.5l563.4,157.3l567.8-157.3l76.4-848H723.7l-28.5-286.2H1751.5z"/>
<path d="M1606.8,1208.6h67.9l-8.8,83h-67.7L1606.8,1208.6z M2180.1,743.1v1039.7c-2.3,65.7-35.7,124.4-94.3,163.4l-900.4,519.8
	c-51.9,30-136.8,30-188.6,0L96.4,1946.1c-54.6-35.8-90.3-93.6-94.3-163.4V743.1c0-59.9,42.4-133.4,94.3-163.4L996.8,59.9
	c51.9-30,136.8-30,188.6,0l900.4,519.8C2140.2,616.5,2178,680,2180.1,743.1z M1719.8,1626.1l-314.2-181.8
	c-209.6,335.5-672.5,171.6-677.5-181.4c16.9-383,487.9-495.1,677.5-181.4l314.2-181.8C1310.3,241,360.8,554,365,1262.9
	C383.2,2027.2,1358.9,2252.6,1719.8,1626.1z M1794.8,1150.8h-53.9l9.7-93.8h-59.8l-10,93.8h-68.1l9.7-93.8h-59.8l-10,93.8h-57v57.8
	h50.9l-8.8,83h-58.8v57.8h52.7l-10.9,102.6h61l10.6-102.6h67.5l-10.9,102.6h61l10.6-102.6h57.7v-57.8h-51.7l8.6-83h59.9V1150.8z"/>
</svg>
