<?xml version="1.0" encoding="utf-8"?>
<!-- Generator: Adobe Illustrator 26.5.1, SVG Export Plug-In . SVG Version: 6.00 Build 0)  -->
<svg version="1.1" id="Layer_1" xmlns="http://www.w3.org/2000/svg" xmlns:xlink="http://www.w3.org/1999/xlink" x="0px" y="0px"
	 viewBox="0 0 2194 2500" style="enable-background:new 0 0 2194 2500;" xml:space="preserve">
<style type="text/css">
	.st0{fill:#FFFFFF;}
</style>
<g>
	<path d="M13.5,1243.5c0-191.7,0.7-383.5-0.6-575.2c-0.2-34.6,10.9-54.8,41.7-72.2c335.6-189.4,670.4-380,1005-571.2
		c29.7-17,53.6-17.7,83.7-0.4c334.9,193.6,670.3,386.2,1005.9,578.4c26.9,15.4,38.3,34,38.2,65.4c-1.8,386.4-2.7,772.9-3.1,1159.3
		c0,29.2-10.2,47.6-35.9,62.2c-340.5,192.9-680.6,386.5-1020.5,580.4c-24,13.7-44.2,11.4-67.8-2.2
		c-337.7-194.8-675.8-389.1-1014.3-582.7c-27.9-16-35.8-36.5-35.7-66.8c0.9-191.7,0.5-383.3,0.5-575
		C11.4,1243.5,12.5,1243.5,13.5,1243.5z"/>
	<path class="st0" d="M1863.2,1400.2c-52.6,77.5-126.7,103.7-210.2,75.6c-37.8-12.7-66.1-36.5-78.3-76c-4.4-14.4-18.3-32.6,3.7-41.9
		c19-8,34.6,1.9,43.3,21.9c23.3,53.6,69,64.6,120.6,59.5c34.2-3.4,62.4-21.3,66.5-57.8c4.3-38.1-25.7-51.3-56.2-59.8
		c-37.8-10.6-76.7-17.8-113.7-30.6c-71.5-24.7-87.9-100.8-39.1-157.6c46.6-54.3,211.2-56.1,240.6,38.5c3.9,12.7,24.3,31.2-1.9,42.3
		c-20.6,8.6-32.7-3.8-43.2-21.7c-29.1-49.4-81.7-66.1-131.8-45.5c-23.6,9.7-38.3,26.4-38.9,50.9c-0.6,23.5,14.8,39.6,36.6,46.9
		c30,10.2,60.3,19.8,91.1,27.3c44.1,10.8,84.4,26,105.1,70.6c4.5,9.7,10.4,14.2,20.8,13.1c25-2.4,33,16.5,43.3,33.5
		c29.2,48.2,97.8,66.6,147.3,40c21.5-11.6,36.6-28.8,36.6-53.6c0-26.1-17.7-41-41.2-48c-40.5-12-81.5-22.3-121.9-34.4
		c-42.7-12.8-72.6-37.9-74.4-86c-1.8-48.3,23-80.8,65.6-99.4c63.5-27.6,182.3-11.7,202.3,64.5c3.9,15,19,32.3-4.8,42.2
		c-18.8,7.8-30.2-5.1-40-20.5c-32.2-50.6-81.4-68-130.6-47.8c-22.9,9.4-38.3,23.6-39.4,50c-1.1,27.8,15.8,42.1,38.6,49.8
		c40,13.5,81,24.1,121.1,37.7c51.9,17.6,79,51.7,77.6,94.4c-1.5,42.6-36,82.2-84.3,96.8C1986.9,1501.5,1927,1480.6,1863.2,1400.2z"
		/>
	<path class="st0" d="M718.6,1111.1c41-8.4,41-8.4,49.9,40c48.7-41.8,100.8-65.7,166.5-50.5c64.8,15.1,105.4,52.4,117.4,116.5
		c8.4,44.6,9.4,91.2-0.6,135.7c-27.6,123.2-153.5,171.3-257.4,99.7c-8.4-5.8-16.3-12.5-30.6-23.7c0,49.9-2.8,94.6,0.9,138.8
		c3.2,37.9-7.9,53.3-46.1,45.3c-8.2-120-19.3-239.9-15.4-360.5c1-30.2-0.2-60.4,0.4-90.7C704,1143.7,705.1,1125.6,718.6,1111.1z"/>
	<path class="st0" d="M397.5,1360.6c-50.2,157.7-224.2,149-292.4,69.1c-66.2-77.6-58-222.7,16.7-291.7
		c49.3-45.5,108.7-51.1,170.1-32.8c56.1,16.8,85.5,59.3,98,115c18.6,82.7,18.8,82.7-64.1,82.7c-60.8,0-121.7,0.8-182.5-0.4
		c-21.2-0.4-30.2,4.2-27.7,27.7c5.4,51.1,42.3,96.5,90.7,108.1c50.2,12,96.5-6.9,126-51.5C352.1,1356.5,352.1,1356.5,397.5,1360.6z"
		/>
	<path class="st0" d="M1421.7,1302.8c-38,0-76,1.2-113.9-0.5c-21.4-0.9-24.9,8-24.3,26.6c1.5,45.5,39,94.5,84.4,107.6
		c49.4,14.3,99.7-3.4,127.5-44.8c5.9-8.8,11.1-18.1,17.9-26c10.5-12.1,26.8-11.6,37.9-6.1c14.4,7.1,4.2,20.9,0.3,31.7
		c-22.2,61.6-92.4,100.9-165.9,93.1c-82.6-8.7-144.7-64.1-155.2-141.4c-6.8-50.1-3.3-99.9,17.9-147c34.6-76.9,109.7-113,194.9-93.8
		c71.6,16.1,124.3,87.4,123.9,165c-0.1,26-6.7,38.6-36.2,36.4C1494.7,1300.7,1458.1,1302.8,1421.7,1302.8z"/>
	<path class="st0" d="M699.7,1476.2c-30.7,2.7-51.3-11.6-67.8-36.6c-26-39.1-53.9-77-83.7-119.3c-33.4,45.1-65.6,88.3-97.5,131.8
		c-17.9,24.3-39,31.8-69.1,13.2c40.8-54.3,79.8-108,120.7-160.1c12.6-16,13.2-25.7,0.2-42.3c-37.4-47.7-72.3-97.4-113.7-153.9
		c104.3-8.4,100.4,100.7,162.8,132.5c24.1-33.6,49.4-69.1,74.9-104.6c18.5-25.7,40.8-40.7,73.5-26c13.2,19.3-3.7,30.8-12.4,43.3
		c-23.3,33.3-47.7,66-73.1,97.7c-18,22.6-17.9,41.8-0.2,64.7c28.6,36.9,58.3,73.2,82.5,113.2C705,1443.6,723,1459.3,699.7,1476.2z"
		/>
	<path d="M699.7,1476.2c18-17.3-2.3-27.2-9.2-37.2c-27.4-39.5-55.1-79.2-86.1-115.8c-23.4-27.7-25.6-47.8-0.6-77.2
		c35.6-42,73.4-83.4,96.1-135c6.2,0.1,12.5,0.1,18.7,0.2c0,167.3,0,334.7,0,502c-19.4-22.1-5.6-48.6-9.7-72.7
		C705.3,1519.1,717,1495.5,699.7,1476.2z"/>
	<path class="st0" d="M1140,1148.4c27.6-23.7,51-51.8,90.5-48.2c11.3,1,26-3.6,26.3,15.8c0.2,13.8,1.8,28-17.6,31.1
		c-87.4,13.8-104.2,74.6-101.5,150.2c1.7,47,0.2,94.1-0.2,141.2c-0.2,17.1-1,35.8-24,36.7c-26,1.1-27.5-18.4-27.5-37.7
		c0-95.7,0-191.3,0-287c0-19.6-3.7-42.9,24.5-45.2C1139.1,1103,1135.1,1129,1140,1148.4z"/>
	<path d="M1008.8,1283.6c0.1,114.9-44.8,164.4-136.2,157.6c-63.6-4.7-109.3-56.6-110.4-144.1c-1.6-124.1,71-185.4,175.8-149.7
		C1007.4,1171,1004.1,1234,1008.8,1283.6z"/>
	<path d="M229,1264.7c-30.2,0-60.5-0.8-90.7,0.3c-17.6,0.6-23.9-4.8-22.5-23.2c4.3-56.3,56.4-102.6,118.3-103.5
		c60.3-0.9,106.4,38.2,113.6,94.6c2.9,23.1-2.4,33.8-28,32.3C289.5,1263.4,259.2,1264.7,229,1264.7z"/>
	<path d="M1399.5,1261.8c-27.3,0-54.7-2.1-81.7,0.5c-39,3.7-38.9-14.7-29-43.1c18.6-53.6,63-83.4,122.5-80.8
		c49.9,2.2,90.8,35.5,100.8,82.5c5.2,24.9,6,45.4-30.8,41.5C1454.3,1259.5,1426.8,1261.8,1399.5,1261.8z"/>
</g>
</svg>
