<?xml version="1.0" encoding="utf-8"?>
<!-- Generator: Adobe Illustrator 27.9.1, SVG Export Plug-In . SVG Version: 6.00 Build 0)  -->
<svg version="1.1" id="Layer_1" xmlns="http://www.w3.org/2000/svg" xmlns:xlink="http://www.w3.org/1999/xlink" x="0px" y="0px"
	 viewBox="0 0 2183 2500" style="enable-background:new 0 0 2183 2500;" xml:space="preserve">
<style type="text/css">
	.st0{fill:#BFC8D0;}
</style>
<g>
	<path class="st0" d="M551.6,775.6c-120.6-7-239.5-16.6-353.2-57.4c-36.3-13-72.1-31.5-103-54.4c-47.3-35.2-46-81.9-0.6-119.7
		c49.3-41.1,109.1-60.1,170.4-73.6c207.5-45.9,414.6-45.7,619.4,13.6c41.3,11.9,82,32.1,117.4,56.5c55,37.9,53.8,87.5,0.7,128.2
		c-59.3,45.5-129.8,65.6-201.7,77.1C718.3,759,634.7,766,551.6,775.6z"/>
	<path class="st0" d="M61.3,780.8c327.9,128.4,652.6,128.6,979.8-0.2c0,66,4.1,136.7-2.3,206.5c-2.1,22.8-27.8,48-49.1,63.5
		c-54.5,39.7-119.6,55.8-184.8,68.3c-189.6,36.4-378.9,35.2-565.9-14.6c-45.3-12.1-88.6-34-130.2-56.1
		c-34.2-18.2-49.9-49.3-48.1-90.8C63.3,897.1,61.3,836.8,61.3,780.8z M271.4,936.4c-25.5,0.5-46.4,21.8-45.8,46.7
		c0.5,25,22.1,45.2,47.7,44.8c25.7-0.4,46.3-21.4,45.7-46.6C318.4,956.1,297,935.9,271.4,936.4z"/>
	<path class="st0" d="M61.1,1154.1c328.7,128.2,653.4,128.9,978.5,0.4c0,68.2,0,141.2,0,213.1c-50.6,0-99.1-3.9-146.7,0.8
		c-87.6,8.7-157.3,49.1-201.6,128.3c-4.1,7.4-14.9,14.9-23.1,15.5c-156.4,10.7-311.9,6-462.2-44.1c-38.3-12.8-74.3-34.1-108.9-55.4
		c-25.8-15.9-37.1-42-36.4-74.2C62.2,1276.1,61.1,1213.6,61.1,1154.1z M319.1,1355.6c-0.1-24.7-22.1-46.6-46.8-46.5
		c-24.8,0.1-46.6,22-46.5,46.8c0.1,24.9,21.8,46.3,46.8,46.1C297.6,1401.9,319.2,1380.4,319.1,1355.6z"/>
	<path class="st0" d="M1525.8,1987.5c40.2,54.7,100.1,41.5,152,55.2c-6.6,24.3-12.1,47.8-20,70.5c-1.9,5.5-12.6,12.5-17.8,11.5
		c-50.8-10.2-102.4-18.5-151.5-34.5c-35.7-11.6-56.4-43.7-71.6-78.4c-4.2-9.6-16.2-19.7-26.4-22.1
		c-117.4-28.1-189.6-113.3-196.9-234.3c-3.6-59.5,1.2-117.4,29.1-171.6c51.6-100.2,161.9-151,282.2-129.5
		c113.4,20.2,193.3,103.7,203.9,218c3.7,39.5,4,80.7-2.9,119.6C1688.3,1891.3,1629.8,1957.7,1525.8,1987.5z M1594.4,1718.4
		c-5.6-24.7-9.1-53.6-18.8-80.4c-20-55.3-64.4-84.5-122.2-84.6c-58.7-0.2-103.8,30.4-124.9,85.7c-18.6,48.6-19.6,98.4-6.3,148.3
		c17.8,66.7,63.6,103.1,128.1,103.7c66.6,0.7,113.5-35,131.9-102.3C1588.2,1767.3,1590,1744.9,1594.4,1718.4z"/>
	<path class="st0" d="M666,1619.7c3.5,49.5,19.4,91.4,48.4,128.5c4,5.1,4.6,15.8,2.5,22.4c-10.6,32.8-21.6,65.5-34.8,97.3
		c-3.3,7.9-14.8,17.1-23.1,17.7c-159.4,11.3-317,3.4-469.7-48.8c-16.7-5.7-32.8-13.5-48.7-21.3c-53.5-26.3-87.4-62.3-80.5-129.2
		c5.5-53.5,1.1-108,1.1-165.1C252.6,1620.9,456.8,1626.7,666,1619.7z M271.3,1682.7c-24.5,0.2-46.3,23-45.5,47.5
		c0.9,25.2,22.8,46.2,47.6,45.6c25-0.7,46.2-22.8,45.6-47.6C318.4,1703.5,296.4,1682.5,271.3,1682.7z"/>
	<path class="st0" d="M1099.6,1485.7c-11.8,31.8-22.7,61-34.4,92.6c-45.9-22-91.4-33.1-140-26.2c-23.2,3.3-45.1,8.5-50.6,35.6
		c-5.9,29,10.6,46.3,34.6,56.9c41.7,18.3,84.6,34.2,126.2,52.8c63.5,28.4,91.1,79.5,89.1,147.8c-1.6,54.5-22.5,100.4-73.4,122.7
		c-102.6,44.9-204.7,33.2-308.2-11.2c11.4-32.4,21.8-62,30.5-86.8c49.1,8.5,95.9,17.7,143.2,24.2c15.1,2.1,31.6-1.8,46.9-5.3
		c20.5-4.6,39.2-16.8,37.5-38.8c-1.3-17.5-9.4-39.3-22.2-49.8c-18.7-15.5-44.1-23.2-67.1-33.2c-26.4-11.5-54.3-20.1-79.8-33.3
		c-54.5-28.3-83.4-73.5-79.5-136.1c3.8-61.6,34.5-106.7,92-128.8C930.7,1435.6,1015.4,1445.9,1099.6,1485.7z"/>
	<path class="st0" d="M2158.9,1883c0,34.7,0,66.9,0,100.3c-116,0-230.3,0-346.4,0c0-173.1,0-345.1,0-519.2c37.9,0,75.4,0,116.1,0
		c0,139.4,0,277.9,0,418.9C2006.8,1883,2081.9,1883,2158.9,1883z"/>
</g>
</svg>
